<?xml version="1.0" encoding="iso-8859-1"?>
<!-- Uploaded to: SVG Repo, www.svgrepo.com, Generator: SVG Repo Mixer Tools -->
<svg fill="#000000" version="1.1" id="Layer_1" xmlns="http://www.w3.org/2000/svg" xmlns:xlink="http://www.w3.org/1999/xlink" 
	 viewBox="0 0 512 512" xml:space="preserve">
<g>
	<g>
		<path d="M512,234.312V0.001H0v234.311h160.683v40.9c0,12.061-9.813,21.873-21.873,21.873h-31.192
			c-28.833,0-52.29,23.458-52.29,52.29v49.142c0,28.833,23.458,52.29,52.29,52.29h68.273v-30.417h-68.273
			c-12.061,0-21.873-9.813-21.873-21.873v-49.142c0-12.061,9.813-21.873,21.873-21.873h31.192c28.833,0,52.29-23.458,52.29-52.29
			v-40.9h129.8v40.9c0,28.833,23.458,52.29,52.29,52.29h31.192c12.061,0,21.873,9.813,21.873,21.873v49.142
			c0,12.061-9.813,21.873-21.873,21.873h-68.273v30.417h68.273c28.833,0,52.29-23.458,52.29-52.29v-49.142
			c0-28.833-23.458-52.29-52.29-52.29H373.19c-12.061,0-21.873-9.813-21.873-21.873v-40.9H512z M30.417,203.895V30.419h451.166
			v173.477H30.417z"/>
	</g>
</g>
<g>
	<g>
		<rect x="52.376" y="151.385" width="36.703" height="30.417"/>
	</g>
</g>
<g>
	<g>
		<rect x="114.135" y="151.385" width="36.703" height="30.417"/>
	</g>
</g>
<g>
	<g>
		<rect x="175.892" y="151.385" width="160.217" height="30.417"/>
	</g>
</g>
<g>
	<g>
		<rect x="361.162" y="151.385" width="36.703" height="30.417"/>
	</g>
</g>
<g>
	<g>
		<rect x="422.919" y="151.385" width="36.703" height="30.417"/>
	</g>
</g>
<g>
	<g>
		<rect x="52.376" y="101.947" width="36.703" height="30.417"/>
	</g>
</g>
<g>
	<g>
		<rect x="114.135" y="101.947" width="36.703" height="30.417"/>
	</g>
</g>
<g>
	<g>
		<rect x="175.892" y="101.947" width="36.703" height="30.417"/>
	</g>
</g>
<g>
	<g>
		<rect x="237.648" y="101.947" width="36.703" height="30.417"/>
	</g>
</g>
<g>
	<g>
		<rect x="299.405" y="101.947" width="36.703" height="30.417"/>
	</g>
</g>
<g>
	<g>
		<rect x="361.162" y="101.947" width="36.703" height="30.417"/>
	</g>
</g>
<g>
	<g>
		<rect x="422.919" y="101.947" width="36.703" height="30.417"/>
	</g>
</g>
<g>
	<g>
		<rect x="52.376" y="52.51" width="36.703" height="30.417"/>
	</g>
</g>
<g>
	<g>
		<rect x="114.135" y="52.51" width="36.703" height="30.417"/>
	</g>
</g>
<g>
	<g>
		<rect x="175.892" y="52.51" width="36.703" height="30.417"/>
	</g>
</g>
<g>
	<g>
		<rect x="237.648" y="52.51" width="36.703" height="30.417"/>
	</g>
</g>
<g>
	<g>
		<rect x="299.405" y="52.51" width="36.703" height="30.417"/>
	</g>
</g>
<g>
	<g>
		<rect x="361.162" y="52.51" width="36.703" height="30.417"/>
	</g>
</g>
<g>
	<g>
		<rect x="422.919" y="52.51" width="36.703" height="30.417"/>
	</g>
</g>
<g>
	<g>
		<path d="M256,297.71c-41.609,0-75.462,33.852-75.462,75.462c0,19.924,7.695,38.719,21.666,52.92l0.932,0.947
			c4.601,4.869,7.829,10.791,9.408,17.259v22.115v2.132c0,23.961,19.494,43.454,43.455,43.454s43.455-19.494,43.455-43.454v-2.132
			v-22.115c1.578-6.461,4.799-12.376,9.393-17.241l0.948-0.964c13.972-14.202,21.666-32.995,21.666-52.92
			C331.462,331.563,297.609,297.71,256,297.71z M269.04,468.544h-0.001c0,7.189-5.849,13.037-13.038,13.037
			c-7.189,0-13.038-5.849-13.038-13.037v-2.132h26.077V468.544z M288.413,404.451l-0.197,0.197
			c-8.75,8.719-14.938,19.494-18.035,31.347H241.82c-3.097-11.852-9.285-22.628-18.035-31.347l-0.193-0.193
			c-8.151-8.439-12.635-19.533-12.635-31.283c0-24.838,20.207-45.045,45.045-45.045c24.838,0,45.045,20.207,45.045,45.045
			C301.045,384.922,296.562,396.012,288.413,404.451z"/>
	</g>
</g>
</svg>